PathFileType	4	(X/Y/Z)	57_1_34_p1_0-291_filt_butterworth.trc
DataRate	CameraRate	NumFrames	NumMarkers	Units	OrigDataRate	OrigDataStartFrame	OrigNumFrames
60.0	60.0	5	27	m	60.0	254	291
Frame#	Time	RHip			RKnee			RAnkle			RBigToe			RSmallToe			RHeel			LHip			LKnee			LAnkle			LBigToe			LSmallToe			LHeel			Neck			Head			Nose			RShoulder			RElbow			RWrist			RThumb			RIndex			RPinky			LShoulder			LElbow			LWrist			LThumb			LIndex			LPinky			
		X1	Y1	Z1	X2	Y2	Z2	X3	Y3	Z3	X4	Y4	Z4	X5	Y5	Z5	X6	Y6	Z6	X7	Y7	Z7	X8	Y8	Z8	X9	Y9	Z9	X10	Y10	Z10	X11	Y11	Z11	X12	Y12	Z12	X13	Y13	Z13	X14	Y14	Z14	X15	Y15	Z15	X16	Y16	Z16	X17	Y17	Z17	X18	Y18	Z18	X19	Y19	Z19	X20	Y20	Z20	X21	Y21	Z21	X22	Y22	Z22	X23	Y23	Z23	X24	Y24	Z24	X25	Y25	Z25	X26	Y26	Z26	X27	Y27	Z27	
254	4.233333333333333	0.2415723575611798	0.5693922446036499	0.9705587959413597	0.2387378806825741	0.672725525647856	1.3700108718347634	0.24751423819277754	0.8516442414890429	1.761809018006887	0.23304932891274754	0.6667740343397467	1.8085431357082822	0.3071127468267869	0.7072410214179338	1.803513989517615	0.23679373186073888	0.9704632240875253	1.811992646527564	0.03191605291321434	0.5878382146887181	0.9871775206574267	0.042884416931728994	0.7176702923292386	1.3746643025395953	0.07350137741730363	0.8902083500855444	1.7760945704661992	0.08187502129758242	0.6587675439243147	1.797308310162403	0.02783519467464491	0.7483415222828108	1.8208378945675583	0.09310459811517027	0.9356021894338052	1.8216128260468842	0.12342994921912487	0.41661813140337745	0.44303203506905453	0.1209896819588748	0.2957805989495934	0.21972599368710755	0.1128820794009246	0.2590804202843008	0.36004302366009905	0.26743981617200985	0.4003546889356237	0.5170022645361378	0.3224198283686452	0.43891436012542717	0.763150719568547	0.17458215182703649	0.384959313393112	0.9685341889207263	0.10136680890040288	0.3722295352663663	1.0561246710395418	0.10170163788940803	0.4321708578460669	1.0722741755020517	0.1314306846383772	0.4361532197576448	1.0846553851069123	-0.035616975728792334	0.39783927207648345	0.5334773506924818	-0.0407649107294365	0.4430467273227845	0.7925524494523989	0.05670296985587843	0.374200285654918	0.9711005733022939	0.13267232513289035	0.38721841590795797	1.0421926745657784	0.12921672520867053	0.3915302364653449	1.0782985159579699	0.09685871015438931	0.3810817137117696	1.0743438401576137
255	4.25	0.2412024123261939	0.569097837490113	0.9706511398162327	0.2381718478556602	0.6715862734192573	1.3685286167156163	0.24751670283075455	0.8517154404735832	1.7618398354566054	0.2330480301734674	0.6667553418426218	1.8085636104917244	0.3070233262702935	0.7076439512255681	1.8036782653336618	0.23562636095826425	0.966299327608749	1.8109796687682378	0.03179258580671218	0.58777432843235	0.9873224260634663	0.04263279253595768	0.7169616330591644	1.3740201871625028	0.07350168171888978	0.8902173454278337	1.776091763211115	0.08187191589545623	0.6587780944779156	1.7972294152804242	0.02780068516892387	0.7483700721977281	1.820851597497266	0.0930935923760652	0.9356008923139831	1.8217186157459913	0.12334954352267351	0.416530799689616	0.44200240283922987	0.12103144899599572	0.2960941235965121	0.21948751260602836	0.11285768446210404	0.25919860878988815	0.3600099459205964	0.267367903646372	0.40038098201870875	0.5170180079798206	0.32264726809108063	0.44217761208410905	0.7629160511038955	0.1764081995564945	0.3990152904571052	0.9704692195750226	0.10556724943925223	0.3826872609635515	1.0588398226484246	0.10600418153748022	0.43363444363324827	1.073187667855973	0.13264487576375697	0.44121245014478316	1.0831669905467964	-0.03555759391285772	0.3978601766960685	0.5334084248048061	-0.03863930214619933	0.4435091709124413	0.7923929482640428	0.05998128902928439	0.38081888592522806	0.9734271809307178	0.13509353171529667	0.39605224459865057	1.0432861264982893	0.13346903732609897	0.40329439124884714	1.0798450035419762	0.10057306560257588	0.3990457523251329	1.073191301525256
256	4.266666666666667	0.24120510650174315	0.5686043919810305	0.9711678229073951	0.23779419284002853	0.6701073263708134	1.366139836971104	0.24750533390215013	0.8516945236795737	1.7618354181006328	0.23300920064090266	0.6664792431360824	1.8085006540187463	0.3070242980499543	0.7079198102592743	1.8037750427576014	0.2351716764560775	0.9646107562754037	1.8105608961120185	0.03153947904704267	0.5887909296788242	0.9874834591896728	0.04225297518652268	0.7159973755005582	1.3734758213057265	0.07348414585643988	0.8901734786739769	1.7759607841267695	0.08185745992533465	0.658840372322504	1.797253025234449	0.02776968146799282	0.748374034564556	1.820853329070966	0.09307808514928767	0.9354214481231503	1.8217577054566627	0.12325357808133124	0.4164099559856598	0.4406976285319534	0.12145609346501417	0.2960686902252074	0.21944402092559653	0.11262178280109064	0.2590886680169786	0.36003289802045885	0.2672421624182291	0.4003770914685056	0.5169505388810829	0.3227849367812774	0.4433239643179273	0.7627746523588925	0.17815135033070134	0.4157096265374816	0.9711424691678121	0.11216771816424784	0.3977381963411409	1.0592808955546646	0.1118874005426049	0.43908239729934595	1.0734235970205428	0.1331088904479673	0.44712357563841865	1.08059016369832	-0.03548753422509991	0.39783060215665084	0.5335641290088502	-0.03756395550621304	0.44367452944318164	0.7918854265956311	0.06367734750608525	0.3913213983106831	0.9738352414229509	0.13780379226411796	0.4037396953909597	1.0408550762287538	0.1373199446442462	0.41486635055316257	1.0782278333722481	0.10467207670380238	0.42071194611520446	1.0713635657744942
257	4.283333333333333	0.24136239640798407	0.5683550307747227	0.9722833150488632	0.23769637647508357	0.6688151778729639	1.3650084753880036	0.24750105012245144	0.8516429881087275	1.761798851976786	0.23309825252207733	0.666666393064483	1.8085156314549353	0.3071282251808887	0.7081077132507888	1.8037760587547793	0.2351872425667101	0.9645071525182458	1.8105294911357523	0.03125050896273345	0.5915371829904784	0.9876286681574841	0.04206543377908764	0.7150193881333958	1.373052206204348	0.07349962988196193	0.8901864461638878	1.7759263898054014	0.08185917805433647	0.6591416199724063	1.7977096603358582	0.027737515244625997	0.7483740175267631	1.8208571743262691	0.09305088379614994	0.9350967973658535	1.8216987517594874	0.12319759053261406	0.4163061302091286	0.43971438675726954	0.12244914024157538	0.29472872063839733	0.21971673751434476	0.11256506042823383	0.2588441082811383	0.36007391394040933	0.2672341977658141	0.40041356516791915	0.5169194423934617	0.3228426939005672	0.44327479519409807	0.7626183242726253	0.1793330849145581	0.4309818999160855	0.9705367316359359	0.11879776510012066	0.4093274457386048	1.0559378409894355	0.1175691272237778	0.44449381562475154	1.0716345100459435	0.13216684090191808	0.4531519477329435	1.0768638452114143	-0.035421889418682004	0.39778445541712515	0.5339719108403232	-0.03718066168632491	0.4435965130592526	0.790526612939418	0.0665904049313626	0.40294277226998654	0.9714932945874459	0.13920863058914446	0.40681706165262643	1.0356807261371936	0.13881645396053913	0.42063554518370033	1.0732659815001373	0.10688731562512885	0.4407676223737131	1.0682888099392909
258	4.3	0.24180553010304368	0.5693871080890522	0.9736713440626648	0.23787046215282043	0.6683363957022205	1.365838069645791	0.24750296423295925	0.8515811750661191	1.7617423684272056	0.23357801744939558	0.6684730799501485	1.8089040307874926	0.30725840155390743	0.7082496499590093	1.803726827863676	0.23531091017568187	0.9647791908171441	1.8105852254842618	0.031035519454201087	0.5953234354842452	0.9879416355961425	0.04211531170521325	0.7142620330228772	1.372693402329013	0.07350852356060039	0.8901481776818935	1.7759982279618174	0.0819376878330358	0.6598299615058009	1.7988527721843284	0.027700495127741108	0.7483889945931107	1.8208860516774041	0.09300883858048152	0.9347532249097842	1.8216024859886955	0.12319971893266207	0.4162295427957936	0.4393079535100801	0.1237172702438946	0.2914436179378061	0.22042311299296005	0.11310542435879727	0.2576799325244369	0.3602585444377174	0.2677479613118661	0.40059627663440556	0.5168172290248356	0.32285038629755775	0.44295987558582317	0.7623044583384511	0.17968620865973403	0.4422454684040777	0.9693384394261977	0.1234337942630476	0.4154670050988471	1.0507741306400047	0.12165294966876741	0.44694135839194055	1.0679206172527111	0.13021116322458384	0.45787375581936474	1.072724532909457	-0.03538774743548122	0.39775693870891954	0.5342831364165681	-0.03678011582874044	0.44339762041939845	0.7882894251851381	0.06818132502487245	0.4117024656884082	0.9673259530475588	0.13932518906792707	0.4063313450844461	1.0299624674881518	0.13817138270469048	0.4207789899241679	1.0672559423805597	0.10679418172313017	0.4564059231241422	1.0645412534736969
